<svg width="41" height="28" viewBox="0 0 41 28" fill="none" xmlns="http://www.w3.org/2000/svg">
<path d="M20.1248 0.472168C4.47219 0.472168 0 7.18045 0 15.0068C0 22.8331 5.59024 27.3053 12.2985 27.3053H12.8855C14.5765 27.3053 16.1278 26.348 16.8825 24.8316L18.5037 21.5963C18.8111 20.9813 19.4331 20.597 20.1248 20.597C20.8166 20.597 21.4386 20.9813 21.746 21.5963L23.3672 24.8316C24.1219 26.348 25.6732 27.3053 27.3642 27.3053H27.9512C34.6595 27.3053 40.2497 22.8331 40.2497 15.0068C40.2497 7.18045 35.7775 0.472168 20.1248 0.472168ZM6.70828 13.8887C6.70828 12.7026 7.17946 11.5651 8.01816 10.7264C8.85685 9.88772 9.99437 9.41654 11.1805 9.41654C12.3666 9.41654 13.5041 9.88772 14.3428 10.7264C15.1815 11.5651 15.6527 12.7026 15.6527 13.8887C15.6527 15.0748 15.1815 16.2123 14.3428 17.051C13.5041 17.8897 12.3666 18.3609 11.1805 18.3609C9.99437 18.3609 8.85685 17.8897 8.01816 17.051C7.17946 16.2123 6.70828 15.0748 6.70828 13.8887ZM29.0692 9.41654C30.2553 9.41654 31.3928 9.88772 32.2315 10.7264C33.0702 11.5651 33.5414 12.7026 33.5414 13.8887C33.5414 15.0748 33.0702 16.2123 32.2315 17.051C31.3928 17.8897 30.2553 18.3609 29.0692 18.3609C27.8831 18.3609 26.7456 17.8897 25.9069 17.051C25.0682 16.2123 24.597 15.0748 24.597 13.8887C24.597 12.7026 25.0682 11.5651 25.9069 10.7264C26.7456 9.88772 27.8831 9.41654 29.0692 9.41654Z" fill="white"/>
</svg>
