<svg width="426" height="198" viewBox="0 0 426 198" fill="none" xmlns="http://www.w3.org/2000/svg">
<path d="M151.5 -57.5C258.19 -57.5 326.676 -34.6364 368.485 1.47168C410.28 37.5675 425.5 86.9712 425.5 140.25C425.5 193.499 406.486 235.3 376.096 263.791C345.7 292.287 303.89 307.5 258.25 307.5H250.244C227.368 307.5 206.382 294.549 196.173 274.036L196.172 274.035L174.059 229.905C169.78 221.348 161.124 216 151.5 216C141.876 216 133.219 221.348 128.94 229.905L106.828 274.035L106.827 274.036C96.6182 294.549 75.6323 307.5 52.7559 307.5H44.75C-0.889962 307.5 -42.7001 292.287 -73.0957 263.791C-103.486 235.3 -122.5 193.499 -122.5 140.25C-122.5 86.9712 -107.28 37.5675 -65.4854 1.47168C-23.6758 -34.6364 44.81 -57.5 151.5 -57.5ZM29.5 63.5C13.1892 63.5 -2.45382 69.9792 -13.9873 81.5127C-25.5208 93.0462 -32 108.689 -32 125C-32 141.311 -25.5208 156.954 -13.9873 168.487C-2.45382 180.021 13.1892 186.5 29.5 186.5C45.8108 186.5 61.4538 180.021 72.9873 168.487C84.5208 156.954 91 141.311 91 125C91 108.689 84.5208 93.0462 72.9873 81.5127C61.4538 69.9792 45.8108 63.5 29.5 63.5ZM273.5 63.5C257.189 63.5 241.546 69.9792 230.013 81.5127C218.479 93.0462 212 108.689 212 125C212 141.311 218.479 156.954 230.013 168.487C241.546 180.021 257.189 186.5 273.5 186.5C289.811 186.5 305.454 180.021 316.987 168.487C328.521 156.954 335 141.311 335 125C335 108.689 328.521 93.0462 316.987 81.5127C305.454 69.9792 289.811 63.5 273.5 63.5Z" stroke="#E8E0EF"/>
</svg>
